<?xml version="1.0" encoding="utf-8"?>
<!-- Generator: Adobe Illustrator 26.0.1, SVG Export Plug-In . SVG Version: 6.00 Build 0)  -->
<svg version="1.1" id="Layer_1" xmlns="http://www.w3.org/2000/svg" xmlns:xlink="http://www.w3.org/1999/xlink" x="0px" y="0px"
	 viewBox="0 0 21 21" style="enable-background:new 0 0 21 21;" xml:space="preserve">
<style type="text/css">
	.st0{fill:#FFFFFF;}
</style>
<g>
	<path class="st0" d="M5.9,17.3L5.9,17.3c-0.8,0-1.5,0.7-1.5,1.5c0,0.4,0.2,0.8,0.4,1.1c0.3,0.3,0.7,0.4,1.1,0.4l0,0
		c0.4,0,0.8-0.2,1.1-0.4c0.3-0.3,0.4-0.7,0.4-1.1S7.2,18,7,17.7C6.7,17.4,6.3,17.3,5.9,17.3z"/>
	<path class="st0" d="M17.2,17.3c-0.8,0-1.5,0.7-1.5,1.5s0.7,1.5,1.5,1.5s1.5-0.7,1.5-1.5S18,17.3,17.2,17.3z"/>
	<path class="st0" d="M18.7,4.6c-0.1,0-0.2,0-0.3,0H4.3L4.1,1.7c0-0.3-0.3-0.6-0.6-0.7L1.4,0.7C1,0.6,0.6,0.9,0.5,1.3
		s0.2,0.8,0.6,0.9l1.5,0.3l0.9,10.9c0.1,1.3,1.2,2.3,2.5,2.3l0,0h11l0,0c1.3,0,2.3-0.9,2.5-2.2l0.9-6.6C20.6,5.8,19.8,4.7,18.7,4.6z
		 M18,13.3c-0.1,0.5-0.5,0.9-1,0.9l0,0H6.1l0,0c-0.5,0-1-0.4-1-1L4.4,6h14.1C18.8,6,19,6.3,19,6.7L18,13.3z"/>
	<path class="st0" d="M15.4,8.2h-2.8c-0.4,0-0.8,0.3-0.8,0.8s0.3,0.8,0.8,0.8h2.8c0.4,0,0.8-0.3,0.8-0.8S15.8,8.2,15.4,8.2z"/>
</g>
</svg>
