<?xml version="1.0" encoding="utf-8"?>
<!-- Generator: Adobe Illustrator 26.0.1, SVG Export Plug-In . SVG Version: 6.00 Build 0)  -->
<svg version="1.1" id="Layer_1" xmlns="http://www.w3.org/2000/svg" xmlns:xlink="http://www.w3.org/1999/xlink" x="0px" y="0px"
	 viewBox="0 0 21.8 21.8" style="enable-background:new 0 0 21.8 21.8;" xml:space="preserve">
<style type="text/css">
	.st0{fill:#FFFFFF;}
</style>
<g id="Category" transform="translate(-2035 1039)">
	<g id="Stroke_1">
		<path class="st0" d="M2050.2-1029.1c-0.9,0-1.7-0.3-2.3-1c-0.6-0.6-0.9-1.4-0.9-2.3v-3.3c0-1.8,1.4-3.2,3.2-3.2l0,0h3.3
			c1.8,0,3.2,1.5,3.2,3.2v3.3c0,1.8-1.4,3.2-3.2,3.2h-3.3V-1029.1z M2050.2-1037.4L2050.2-1037.4c-0.9,0-1.7,0.8-1.7,1.7v3.3
			c0,0.5,0.2,0.9,0.5,1.2c0.3,0.3,0.8,0.5,1.2,0.5h3.3c0.9,0,1.7-0.8,1.7-1.7v-3.3c0-0.9-0.8-1.7-1.7-1.7H2050.2z"/>
	</g>
	<g id="Stroke_3">
		<path class="st0" d="M2038.3-1029.1c-0.9,0-1.7-0.3-2.3-1c-0.6-0.6-0.9-1.4-0.9-2.3v-3.3c0-1.8,1.4-3.2,3.2-3.2l0,0h3.3
			c0.9,0,1.7,0.3,2.3,1s0.9,1.4,0.9,2.3v3.3c0,0.9-0.3,1.7-0.9,2.3c-0.6,0.6-1.4,0.9-2.3,1h-3.3V-1029.1z M2038.3-1037.4
			c-0.9,0-1.7,0.8-1.7,1.7v3.3c0,0.9,0.8,1.7,1.7,1.7h3.3c0.5,0,0.9-0.2,1.2-0.5s0.5-0.8,0.5-1.2v-3.3c0-0.5-0.2-0.9-0.5-1.2
			s-0.8-0.5-1.2-0.5H2038.3z"/>
	</g>
	<g id="Stroke_5">
		<path class="st0" d="M2038.3-1017.4c-1.8,0-3.2-1.5-3.2-3.2v-3.3c0-0.9,0.3-1.7,0.9-2.3s1.4-0.9,2.3-1l0,0h3.3
			c0.9,0,1.7,0.3,2.3,1s0.9,1.4,0.9,2.3v3.3c0,0.9-0.3,1.7-0.9,2.3s-1.4,0.9-2.3,0.9L2038.3-1017.4L2038.3-1017.4z M2038.3-1025.6
			c-0.5,0-0.9,0.2-1.2,0.5s-0.5,0.8-0.5,1.2v3.3c0,0.9,0.8,1.7,1.7,1.7h3.3c0.5,0,0.9-0.2,1.2-0.5s0.5-0.8,0.5-1.2v-3.3
			c0-0.5-0.2-0.9-0.5-1.2s-0.8-0.5-1.2-0.5H2038.3z"/>
	</g>
	<g id="Stroke_7">
		<path class="st0" d="M2050.2-1017.4c-1.8,0-3.2-1.5-3.2-3.2v-3.3c0-0.9,0.3-1.7,0.9-2.3s1.4-0.9,2.3-1l0,0h3.3
			c1.8,0,3.2,1.5,3.2,3.2v3.3c0,0.9-0.3,1.7-0.9,2.3c-0.6,0.6-1.4,0.9-2.3,0.9h-3.3V-1017.4z M2050.2-1025.6L2050.2-1025.6
			c-0.5,0-0.9,0.2-1.2,0.5s-0.5,0.8-0.5,1.2v3.3c0,0.9,0.8,1.7,1.7,1.7h3.3c0.5,0,0.9-0.2,1.2-0.5s0.5-0.8,0.5-1.2v-3.3
			c0-0.9-0.8-1.7-1.7-1.7H2050.2z"/>
	</g>
</g>
</svg>
