<?xml version="1.0" encoding="utf-8"?>
<!-- Generator: Adobe Illustrator 26.0.1, SVG Export Plug-In . SVG Version: 6.00 Build 0)  -->
<svg version="1.1" id="Layer_1" xmlns="http://www.w3.org/2000/svg" xmlns:xlink="http://www.w3.org/1999/xlink" x="0px" y="0px"
	 viewBox="0 0 30.1 29.7" style="enable-background:new 0 0 30.1 29.7;" xml:space="preserve">
<style type="text/css">
	.st0{fill:#FFFFFF;}
</style>
<g>
	<path class="st0" d="M15.4,13.5c-0.9,0-1.6,0.7-1.6,1.6l0,0c0,0.9,0.7,1.6,1.6,1.6c0.9,0,1.6-0.7,1.6-1.6
		C17,14.3,16.3,13.6,15.4,13.5z"/>
	<path class="st0" d="M21.7,13.5c-0.9,0-1.6,0.7-1.6,1.6l0,0c0,0.9,0.7,1.6,1.6,1.6s1.6-0.7,1.6-1.6C23.3,14.3,22.6,13.5,21.7,13.5z
		"/>
	<path class="st0" d="M9.1,13.5c-0.9,0-1.6,0.7-1.6,1.6c0,0.9,0.7,1.6,1.6,1.6s1.6-0.7,1.6-1.6C10.7,14.3,10,13.5,9.1,13.5z"/>
	<path class="st0" d="M29.1,10.9c-1-3.8-3.5-6.9-6.9-8.8C20,0.9,17.5,0.2,15,0.2l0,0c-3.9,0-7.6,1.5-10.3,4.3
		c-2.8,2.8-4.3,6.4-4.3,10.4c0,2.5,0.7,5.1,2,7.3c0.1,0.2,0.1,0.4,0,0.7L1.5,26c-0.1,0.4-0.1,0.8,0.1,1.2c0.2,0.4,0.5,0.7,0.9,0.8
		c0.4,0.1,0.8,0.1,1,0l2.8-0.8c0.5-0.1,1,0,1.4,0.3l0.1,0.1c2.2,1.3,4.7,1.9,7.2,1.9c1.3,0,2.6-0.2,3.9-0.5c3.8-1,6.9-3.5,8.8-6.9
		C29.7,18.7,30.2,14.7,29.1,10.9z M26.5,21.3c-1.7,3-4.5,5.2-7.9,6.2c-3.4,0.9-6.9,0.5-9.9-1.2C8,25.7,7,25.5,6,25.7l-2.8,0.8H3.1
		C3,26.5,3,26.4,3,26.3l0.9-3.1C4.1,22.7,4,22,3.7,21.4c-1.1-2-1.7-4.3-1.8-6.6c0-3.5,1.4-6.8,3.9-9.3s5.8-3.8,9.3-3.8l0,0
		c2.3,0,4.5,0.6,6.4,1.7c3,1.7,5.2,4.5,6.2,7.9C28.6,14.7,28.2,18.3,26.5,21.3z"/>
</g>
</svg>
