<?xml version="1.0" encoding="utf-8"?>
<!-- Generator: Adobe Illustrator 26.0.1, SVG Export Plug-In . SVG Version: 6.00 Build 0)  -->
<svg version="1.1" id="Layer_1" xmlns="http://www.w3.org/2000/svg" xmlns:xlink="http://www.w3.org/1999/xlink" x="0px" y="0px"
	 viewBox="0 0 25 25" style="enable-background:new 0 0 25 25;" xml:space="preserve">
<g id="Heart" transform="translate(-2039.876 1044.206)">
	<g id="Path_33961">
		<path d="M2052.4-1020.1c-0.1,0-0.3,0-0.4-0.1l-0.3-0.2c0,0,0,0,0,0c-2.7-1.6-5.1-3.6-7.4-5.8c-1.6-1.6-2.9-3.6-3.6-5.8
			c-1.3-4.2,0.1-9.4,4.9-11c2.3-0.7,4.8-0.4,6.8,0.9c2-1.3,4.5-1.6,6.8-0.9c4.8,1.5,6.3,6.8,5,11c-0.8,2.2-2,4.2-3.6,5.8
			c-2.3,2.2-4.7,4.1-7.4,5.8l-0.3,0.2C2052.7-1020.1,2052.5-1020.1,2052.4-1020.1z M2048-1041.8c-0.7,0-1.3,0.1-2,0.3
			c-4.1,1.3-5.1,5.6-4,9.1c0.7,1.9,1.8,3.7,3.3,5.2c2.1,2.1,4.5,3.9,7,5.5c2.5-1.6,4.9-3.4,7-5.5c1.5-1.5,2.6-3.3,3.3-5.2
			c1.1-3.4,0.1-7.7-4-9.1c-2-0.6-4.2-0.3-5.9,1c-0.3,0.2-0.6,0.2-0.9,0C2050.8-1041.4,2049.4-1041.8,2048-1041.8z"/>
	</g>
	<g id="Path_33964">
		<path d="M2059.2-1034c-0.4,0-0.7-0.3-0.7-0.7c-0.1-1.1-0.8-1.9-1.8-2.3c-0.4-0.1-0.6-0.6-0.5-0.9s0.6-0.6,0.9-0.5
			c1.6,0.5,2.7,1.9,2.8,3.6C2060-1034.4,2059.7-1034,2059.2-1034C2059.2-1034,2059.2-1034,2059.2-1034z"/>
	</g>
</g>
</svg>
