<?xml version="1.0" encoding="utf-8"?>
<!-- Generator: Adobe Illustrator 26.0.1, SVG Export Plug-In . SVG Version: 6.00 Build 0)  -->
<svg version="1.1" id="Layer_1" xmlns="http://www.w3.org/2000/svg" xmlns:xlink="http://www.w3.org/1999/xlink" x="0px" y="0px"
	 viewBox="0 0 21 21.1" style="enable-background:new 0 0 21 21.1;" xml:space="preserve">
<style type="text/css">
	.st0{fill:#FFFFFF;}
</style>
<g id="Group_1433">
	<path id="Path_18" class="st0" d="M20.4,14c0.4-1.1,0.6-2.3,0.6-3.5S20.8,8.2,20.4,7V6.9c-1.5-4.2-5.5-6.9-9.9-7
		c-4.4,0-8.4,2.8-9.9,7V7C0.2,8.2,0,9.4,0,10.6s0.2,2.3,0.6,3.5v0.1c1.5,4.2,5.5,6.9,9.9,7c4.4,0,8.4-2.8,9.9-7
		C20.4,14.1,20.4,14.1,20.4,14L20.4,14z M10.5,19.6c-0.4,0-1-0.7-1.6-2.3c-0.3-0.9-0.5-1.8-0.6-2.7h4.4c-0.1,0.9-0.3,1.8-0.6,2.7
		C11.5,18.8,10.9,19.6,10.5,19.6L10.5,19.6z M8.1,13.1C8,12.3,8,11.4,8,10.6s0-1.7,0.1-2.5h4.8C13,8.9,13,9.7,13,10.6s0,1.7-0.1,2.5
		H8.1z M1.5,10.6c0-0.8,0.1-1.7,0.4-2.5h4.7c-0.1,0.8-0.1,1.7-0.1,2.5s0,1.7,0.1,2.5H1.9C1.6,12.2,1.5,11.4,1.5,10.6z M10.5,1.6
		c0.4,0,1,0.7,1.6,2.3c0.3,0.9,0.5,1.8,0.6,2.7H8.3c0.1-0.9,0.3-1.8,0.6-2.7C9.5,2.3,10.1,1.6,10.5,1.6L10.5,1.6z M14.4,8.1h4.7
		c0.2,0.8,0.4,1.7,0.4,2.5s-0.1,1.7-0.4,2.5h-4.7c0.1-0.8,0.1-1.7,0.1-2.5S14.5,8.9,14.4,8.1z M18.6,6.6h-4.3
		c-0.2-1.6-0.7-3.2-1.4-4.7C15.3,2.6,17.4,4.3,18.6,6.6L18.6,6.6z M8.2,1.9C7.4,3.3,7,4.9,6.8,6.6H2.5C3.6,4.3,5.7,2.6,8.2,1.9
		L8.2,1.9z M2.5,14.6h4.3c0.2,1.6,0.7,3.2,1.4,4.7C5.7,18.6,3.6,16.9,2.5,14.6L2.5,14.6z M12.9,19.2c0.7-1.5,1.2-3.1,1.4-4.7h4.3
		C17.4,16.9,15.3,18.6,12.9,19.2L12.9,19.2z"/>
</g>
</svg>
