<?xml version="1.0" encoding="utf-8"?>
<!-- Generator: Adobe Illustrator 26.0.1, SVG Export Plug-In . SVG Version: 6.00 Build 0)  -->
<svg version="1.1" id="Layer_1" xmlns="http://www.w3.org/2000/svg" xmlns:xlink="http://www.w3.org/1999/xlink" x="0px" y="0px"
	 viewBox="0 0 77.1 48.8" style="enable-background:new 0 0 77.1 48.8;" xml:space="preserve">
<style type="text/css">
	.st0{fill:#FFFFFF;}
</style>
<g id="Group_1542" transform="translate(-107.137 -317.897)">
	<path id="Path_14" class="st0" d="M135.8,330.8v-3.4c0-1.5,0-3.1,0-4.6c0-2.7,2.1-4.9,4.8-4.9c2.5,0,4.5,1.8,4.9,4.2
		c0.1,0.5,0.1,1,0.1,1.6c0,7.9,0,15.7,0,23.6c0.1,5.9-2.5,11.5-7.1,15.1c-2.6,2.1-5.7,3.5-9,4.1c-1.8,0.3-3.6,0.4-5.4,0.2
		c-4.4-0.5-8.5-2.6-11.5-5.7c-2-2-3.5-4.5-4.4-7.2c-1.1-3.2-1.3-6.6-0.6-9.9c0.9-4.9,3.7-9.1,7.8-12c2.2-1.5,4.6-2.6,7.2-3.1
		c2.2-0.4,4.5-0.5,6.8-0.2c2.1,0.3,4.1,1,6,2C135.4,330.6,135.5,330.7,135.8,330.8 M126.3,357c5.2,0,9.4-4.3,9.4-9.5
		s-4.3-9.4-9.5-9.4s-9.4,4.3-9.4,9.5c0,0.2,0,0.4,0,0.6C117.1,353.2,121.3,357.1,126.3,357"/>
	<path id="Path_15" class="st0" d="M148.7,342.5c0-4.3,0-8.5,0-12.8c-0.1-1.5,0.5-2.9,1.6-3.9c2-1.8,5.1-1.7,6.9,0.3
		c0.4,0.5,0.7,1,1,1.6c0.2,0.7,0.4,1.4,0.3,2.1c0,8.6,0,17.1,0,25.7c0.1,2.6-1.8,4.9-4.5,5.1c-2.6,0.3-4.9-1.6-5.2-4.1
		c-0.1-3.1-0.1-6.3-0.1-9.4C148.7,345.5,148.7,344,148.7,342.5L148.7,342.5z"/>
	<path id="Path_16" class="st0" d="M171.3,345.6c0,3.4,0,6.8,0,10.3c0,2.7-2.3,4.8-4.9,4.8c-2.6,0-4.7-2.1-4.8-4.7
		c0-6.9,0-13.7,0-20.6c0.1-2.7,2.3-4.8,5-4.7c2.6,0.1,4.7,2.2,4.7,4.8C171.3,338.7,171.3,342.1,171.3,345.6"/>
	<path id="Path_17" class="st0" d="M174.5,349.1c0-2.2,0-4.4,0-6.7c0-2.7,2.2-4.8,4.8-4.9c2.6,0,4.8,2.1,4.9,4.7c0,4.5,0,9.1,0,13.6
		c-0.1,2.5-2,4.6-4.5,4.7c-2.3,0.1-4.4-1.4-5-3.7c-0.1-0.4-0.1-0.8-0.1-1.2C174.5,353.5,174.5,351.3,174.5,349.1"/>
</g>
</svg>
