<?xml version="1.0" encoding="utf-8"?>
<!-- Generator: Adobe Illustrator 26.0.1, SVG Export Plug-In . SVG Version: 6.00 Build 0)  -->
<svg version="1.1" id="Layer_1" xmlns="http://www.w3.org/2000/svg" xmlns:xlink="http://www.w3.org/1999/xlink" x="0px" y="0px"
	 viewBox="0 0 22 22" style="enable-background:new 0 0 22 22;" xml:space="preserve">
<style type="text/css">
	.st0{fill:#EB671B;}
</style>
<path class="st0" d="M21.6,19.7l-4.3-4.3c1.2-1.7,1.9-3.7,1.9-5.8c0-5.3-4.3-9.6-9.6-9.6C7.5,0,5.5,0.7,3.9,1.9
	c-4.3,3.2-5.1,9.2-2,13.5c3.2,4.3,9.2,5.1,13.5,2l4.3,4.3c0.5,0.5,1.4,0.5,1.9,0C22.1,21.1,22.1,20.2,21.6,19.7z M9.6,16.5
	c-3.8,0-6.9-3.1-6.9-6.9s3.1-6.9,6.9-6.9s6.9,3.1,6.9,6.9S13.4,16.5,9.6,16.5z"/>
</svg>
